<svg width="24" height="24" viewBox="0 0 24 24" fill="none" xmlns="http://www.w3.org/2000/svg">
<path d="M20.3114 12.82V18.58C20.2664 20.08 16.5614 21.25 12.0014 21.25C7.44141 21.25 3.73641 20.06 3.69141 18.58V12.82M7.12641 3.43C7.47641 4.235 8.20141 5.25 8.17641 5.84C8.18432 5.98019 8.16261 6.12047 8.11271 6.25172C8.06281 6.38297 7.98583 6.50223 7.88678 6.60176C7.78773 6.70128 7.66883 6.77883 7.53782 6.82935C7.40681 6.87988 7.26663 6.90224 7.12641 6.895C6.98618 6.90224 6.846 6.87988 6.71499 6.82935C6.58398 6.77883 6.46508 6.70128 6.36603 6.60176C6.26698 6.50223 6.19 6.38297 6.1401 6.25172C6.0902 6.12047 6.0685 5.98019 6.07641 5.84C6.05141 5.25 6.77641 4.235 7.13141 3.43H7.12641ZM12.0014 2.75C12.3564 3.555 13.0814 4.57 13.0564 5.16C13.0651 5.30104 13.0438 5.44232 12.994 5.57454C12.9441 5.70675 12.8668 5.8269 12.7671 5.92705C12.6674 6.02721 12.5476 6.1051 12.4156 6.1556C12.2837 6.20609 12.1425 6.22804 12.0014 6.22C11.8615 6.22346 11.7223 6.19837 11.5925 6.14625C11.4626 6.09414 11.3446 6.01611 11.2459 5.91691C11.1472 5.81771 11.0697 5.69944 11.0182 5.5693C10.9667 5.43916 10.9423 5.29989 10.9464 5.16C10.9464 4.57 11.6464 3.555 12.0014 2.75ZM16.8414 3.425C17.1964 4.23 17.9164 5.245 17.8964 5.835C17.9013 5.97508 17.8773 6.11467 17.8261 6.24514C17.7748 6.37561 17.6974 6.49418 17.5985 6.59353C17.4996 6.69287 17.3814 6.77089 17.2512 6.82274C17.121 6.87459 16.9815 6.89919 16.8414 6.895V6.895C16.7013 6.89919 16.5618 6.87459 16.4316 6.82274C16.3014 6.77089 16.1832 6.69287 16.0843 6.59353C15.9854 6.49418 15.908 6.37561 15.8567 6.24514C15.8055 6.11467 15.7816 5.97508 15.7864 5.835C15.7864 5.245 16.4864 4.23 16.8414 3.425V3.425Z" stroke="#121212" stroke-opacity="0.54" stroke-linecap="round" stroke-linejoin="round"/>
<path d="M20.3136 12.8457C20.2636 14.3257 16.5586 15.5007 11.9986 15.5007C7.43859 15.5007 3.73359 14.3257 3.68859 12.8457V12.8207M3.68359 12.8157C3.72859 11.3157 7.43359 10.1457 11.9936 10.1457C16.5536 10.1457 20.2586 11.3357 20.3036 12.8157V12.8407M11.9836 7.2207V11.1657M7.12359 7.8957V12.0007M16.8386 7.8957V12.0007" stroke="#121212" stroke-opacity="0.54" stroke-linecap="round" stroke-linejoin="round"/>
</svg>
