<svg width="38" height="38" viewBox="0 0 38 38" fill="none" xmlns="http://www.w3.org/2000/svg">
<g clip-path="url(#clip0_729_18947)">
<path d="M36.5 19C36.5 28.665 28.665 36.5 19 36.5C9.33502 36.5 1.5 28.665 1.5 19C1.5 9.33502 9.33502 1.5 19 1.5C28.665 1.5 36.5 9.33502 36.5 19Z" fill="#1DBF74" stroke="white" stroke-width="3"/>
<path d="M26.4782 13.1531C26.1643 12.8422 25.6554 12.8422 25.3414 13.1531L15.7108 22.6905L12.009 19.0245C11.6951 18.7136 11.1861 18.7137 10.8722 19.0245C10.5582 19.3354 10.5582 19.8394 10.8722 20.1503L15.1424 24.3792C15.4562 24.69 15.9655 24.6898 16.2792 24.3792L26.4782 14.2789C26.7921 13.968 26.7921 13.464 26.4782 13.1531Z" fill="white"/>
</g>
<defs>
<clipPath id="clip0_729_18947">
<rect width="38" height="38" fill="white"/>
</clipPath>
</defs>
</svg>
