<svg width="24" height="24" viewBox="0 0 24 24" fill="none" xmlns="http://www.w3.org/2000/svg">
<path d="M5 5H18C18.7956 5 19.5587 5.31607 20.1213 5.87868C20.6839 6.44129 21 7.20435 21 8V17C21 17.7956 20.6839 18.5587 20.1213 19.1213C19.5587 19.6839 18.7956 20 18 20H5C4.20435 20 3.44129 19.6839 2.87868 19.1213C2.31607 18.5587 2 17.7956 2 17V8C2 7.20435 2.31607 6.44129 2.87868 5.87868C3.44129 5.31607 4.20435 5 5 5ZM5 6C4.53077 5.99921 4.07635 6.16426 3.717 6.466L11.5 11.52L19.283 6.466C18.9236 6.16441 18.4692 5.99938 18 6H5ZM11.5 12.712L3.134 7.28C3.04529 7.50968 2.99985 7.75379 3 8V17C3 17.5304 3.21071 18.0391 3.58579 18.4142C3.96086 18.7893 4.46957 19 5 19H18C18.5304 19 19.0391 18.7893 19.4142 18.4142C19.7893 18.0391 20 17.5304 20 17V8C20 7.746 19.953 7.503 19.866 7.28L11.5 12.711V12.712Z" fill="#121212" fill-opacity="0.54"/>
</svg>
