<svg width="24" height="24" viewBox="0 0 24 24" fill="none" xmlns="http://www.w3.org/2000/svg">
<g clip-path="url(#clip0_729_17581)">
<path d="M11.9989 -0.0253906C5.36816 -0.0253906 -0.0273438 5.36861 -0.0273438 12.0001C-0.0273438 18.6316 5.36816 24.0256 11.9989 24.0256C18.6297 24.0256 24.0252 18.6316 24.0252 12.0001C24.0252 5.36861 18.6297 -0.0253906 11.9989 -0.0253906ZM11.9989 23.2246C5.80991 23.2246 0.775156 18.1891 0.775156 12.0001C0.775156 5.81111 5.80991 0.775609 11.9989 0.775609C18.1879 0.775609 23.2227 5.81111 23.2227 12.0001C23.2227 18.1891 18.1879 23.2246 11.9989 23.2246Z" fill="#121212" fill-opacity="0.54"/>
<path d="M14.624 5.25101H12.623C10.0745 5.22551 9.74903 6.80276 9.74903 8.50976V9.75101H8.62403C8.57318 9.74421 8.52145 9.74924 8.47286 9.76568C8.42427 9.78212 8.38012 9.80955 8.34385 9.84582C8.30757 9.8821 8.28015 9.92624 8.2637 9.97484C8.24726 10.0234 8.24224 10.0752 8.24903 10.126V12.376C8.24224 12.4269 8.24726 12.4786 8.2637 12.5272C8.28015 12.5758 8.30757 12.6199 8.34385 12.6562C8.38012 12.6925 8.42427 12.7199 8.47286 12.7363C8.52145 12.7528 8.57318 12.7578 8.62403 12.751H9.74903V18.376C9.74278 18.4269 9.74826 18.4786 9.76504 18.5271C9.78183 18.5756 9.80947 18.6197 9.84587 18.6558C9.88227 18.692 9.92646 18.7194 9.97505 18.7359C10.0237 18.7524 10.0754 18.7576 10.1263 18.751H12.4175C12.6388 18.7765 12.818 18.5973 12.7475 18.376L12.749 12.751H14.624C14.6749 12.7578 14.7266 12.7528 14.7752 12.7363C14.8238 12.7199 14.8679 12.6925 14.9042 12.6562C14.9405 12.6199 14.9679 12.5758 14.9844 12.5272C15.0008 12.4786 15.0058 12.4269 14.999 12.376V10.126C15.0058 10.0752 15.0008 10.0234 14.9844 9.97484C14.9679 9.92624 14.9405 9.8821 14.9042 9.84582C14.8679 9.80955 14.8238 9.78212 14.7752 9.76568C14.7266 9.74924 14.6749 9.74421 14.624 9.75101H12.7468L12.749 8.62601C12.8218 8.14676 12.8218 8.22476 13.2665 8.25101H14.6083C14.7125 8.22776 14.8235 8.24051 14.9015 8.16476C14.9795 8.08901 15.0245 7.98551 14.9983 7.87601V5.62601C15.0052 5.5752 15.0003 5.52348 14.984 5.47488C14.9676 5.42628 14.9403 5.38211 14.904 5.34582C14.8678 5.30952 14.8237 5.28208 14.7751 5.26564C14.7266 5.24919 14.6749 5.24419 14.624 5.25101ZM14.2228 7.45901L13.2823 7.42301C12.1175 7.42301 12.02 8.05526 12.02 8.70251L12.017 10.1245C12.0169 10.1772 12.0272 10.2293 12.0473 10.278C12.0674 10.3267 12.0969 10.3709 12.1341 10.4082C12.1713 10.4455 12.2155 10.475 12.2641 10.4952C12.3127 10.5154 12.3649 10.5258 12.4175 10.5258H14.249V11.9748H12.419C12.3127 11.9748 12.2108 12.0169 12.1356 12.092C12.0603 12.1671 12.018 12.269 12.0178 12.3753L12.017 18.001H10.499V12.376C10.499 12.1548 10.3483 11.9755 10.1263 11.9755H8.99903V10.5265H10.1263C10.1789 10.5266 10.231 10.5163 10.2797 10.4962C10.3283 10.4761 10.3725 10.4467 10.4098 10.4095C10.4848 10.3338 10.4983 10.2318 10.4983 10.1253V8.50901C10.4983 6.82751 10.838 6.02651 12.6223 6.02651H14.222V7.45901H14.2228Z" fill="#121212" fill-opacity="0.54"/>
</g>
<defs>
<clipPath id="clip0_729_17581">
<rect width="24" height="24" fill="white"/>
</clipPath>
</defs>
</svg>
