<svg width="20" height="20" viewBox="0 0 20 20" fill="none" xmlns="http://www.w3.org/2000/svg">
<path d="M10 18C12.1217 18 14.1566 17.1571 15.6569 15.6569C17.1571 14.1566 18 12.1217 18 10C18 7.87827 17.1571 5.84344 15.6569 4.34315C14.1566 2.84285 12.1217 2 10 2C7.87827 2 5.84344 2.84285 4.34315 4.34315C2.84285 5.84344 2 7.87827 2 10C2 12.1217 2.84285 14.1566 4.34315 15.6569C5.84344 17.1571 7.87827 18 10 18ZM10 3C10.657 3 11.407 3.59 12.022 4.908C12.239 5.374 12.428 5.91 12.581 6.5H7.419C7.572 5.91 7.761 5.374 7.979 4.908C8.592 3.59 9.342 3 10 3ZM7.072 4.485C6.77671 5.13181 6.54787 5.80694 6.389 6.5H3.936C4.78024 5.04087 6.12123 3.93415 7.714 3.382C7.473 3.712 7.258 4.086 7.072 4.485ZM6.192 7.5C6.06258 8.32701 5.99838 9.16292 6 10C6 10.87 6.067 11.712 6.193 12.5H3.46C3.15503 11.7018 2.99911 10.8545 3 10C3 9.12 3.163 8.276 3.46 7.5H6.193H6.192ZM6.389 13.5C6.565 14.243 6.796 14.922 7.072 15.515C7.258 15.914 7.473 16.288 7.714 16.618C6.12123 16.0659 4.78024 14.9591 3.936 13.5H6.39H6.389ZM7.419 13.5H12.581C12.4432 14.0466 12.2558 14.5795 12.021 15.092C11.408 16.41 10.658 17 10 17C9.343 17 8.593 16.41 7.978 15.092C7.74392 14.5794 7.55714 14.0465 7.42 13.5H7.419ZM12.794 12.5H7.206C7.06704 11.674 6.99813 10.8376 7 10C7 9.117 7.073 8.275 7.206 7.5H12.794C12.927 8.275 13 9.117 13 10C13 10.883 12.927 11.725 12.794 12.5ZM13.611 13.5H16.064C15.2198 14.9591 13.8788 16.0659 12.286 16.618C12.527 16.288 12.742 15.914 12.928 15.515C13.204 14.922 13.435 14.243 13.611 13.5ZM16.541 12.5H13.807C13.933 11.712 14 10.87 14 10C14 9.13 13.933 8.288 13.807 7.5H16.54C16.837 8.276 17 9.12 17 10C17 10.88 16.837 11.724 16.54 12.5H16.541ZM12.286 3.382C13.8788 3.93407 15.2198 5.04081 16.064 6.5H13.61C13.4511 5.80695 13.2223 5.13182 12.927 4.485C12.7489 4.09756 12.5339 3.72818 12.285 3.382H12.286Z" fill="#121212" fill-opacity="0.54"/>
</svg>
