<svg width="78" height="66" viewBox="0 0 78 66" fill="none" xmlns="http://www.w3.org/2000/svg">
<path d="M14.7757 62.8805L14.7575 55.5579L11.0926 61.5907H9.79339L6.14554 55.7148V62.8805H3.44141V50.6758H5.82527L10.4873 58.26L15.0778 50.6758H17.4446L17.4798 62.8805H14.7757Z" fill="black"/>
<path d="M20.3281 57.5099V50.6758H23.2105V57.4053C23.2105 59.7245 24.2429 60.6827 25.9862 60.6827C27.7477 60.6827 28.7618 59.7234 28.7618 57.4053V50.6758H31.609V57.5099C31.609 61.1011 29.5091 63.0887 25.9691 63.0887C22.4269 63.0898 20.3281 61.1011 20.3281 57.5099Z" fill="black"/>
<path d="M34.4531 50.6758H40.1112C44.1861 50.6758 46.9799 53.0818 46.9799 56.7776C46.9799 60.4735 44.1861 62.8795 40.1112 62.8795H34.4531V50.6758ZM39.9692 60.5614C42.4427 60.5614 44.0612 59.1146 44.0612 56.7776C44.0612 54.4417 42.4417 52.9939 39.9692 52.9939H37.3355V60.5614H39.9692Z" fill="black"/>
<path d="M57.0875 62.8805L54.6855 59.4807H54.5435H52.0348V62.8805H49.1523V50.6758H54.5435C57.8711 50.6758 59.9529 52.3673 59.9529 55.1039C59.9529 56.9346 59.0102 58.2767 57.3907 58.9566L60.1845 62.8795H57.0875V62.8805ZM54.3834 52.9772H52.0348V57.2316H54.3834C56.1449 57.2316 57.0341 56.4293 57.0341 55.1049C57.0341 53.7618 56.1449 52.9772 54.3834 52.9772Z" fill="black"/>
<path d="M70.4295 60.2634H64.6466L63.5438 62.8786H60.5898L66.1412 50.6738H68.9883L74.5578 62.8786H71.5334L70.4295 60.2634ZM69.5221 58.1189L67.5471 53.446L65.5721 58.1189H69.5221Z" fill="black"/>
<path d="M23.7187 8.27818C23.7187 8.27818 23.1978 16.3247 36.1014 26.0325C36.1014 26.0325 38.7083 29.7367 34.6676 30.1195C34.6676 30.1195 27.8897 30.8863 23.328 25.6496C23.328 25.6496 22.807 37.2727 18.635 44.5525C18.635 44.5525 16.8106 48.5119 13.2908 44.2972C13.2908 44.2972 0.386146 27.6926 19.4175 8.27818C19.4175 8.27818 22.9362 5.34075 23.7187 8.27818Z" fill="#0164EB"/>
<path d="M50.5109 8.27818C50.5109 8.27818 51.0318 16.3247 38.1282 26.0325C38.1282 26.0325 35.5213 29.7367 39.562 30.1195C39.562 30.1195 46.3399 30.8863 50.9027 25.6496C50.9027 25.6496 51.4236 37.2727 55.5957 44.5525C55.5957 44.5525 57.4201 48.5119 60.9399 44.2972C60.9399 44.2972 73.8445 27.6926 54.8131 8.27818C54.8121 8.27818 51.2934 5.34075 50.5109 8.27818Z" fill="#F8790F"/>
<path d="M30.5618 14.2789C33.7651 14.2789 36.3618 11.7344 36.3618 8.59553C36.3618 5.45666 33.7651 2.91211 30.5618 2.91211C27.3585 2.91211 24.7617 5.45666 24.7617 8.59553C24.7617 11.7344 27.3585 14.2789 30.5618 14.2789Z" fill="#0164EB"/>
<path d="M43.7258 14.2789C46.9291 14.2789 49.5259 11.7344 49.5259 8.59553C49.5259 5.45666 46.9291 2.91211 43.7258 2.91211C40.5226 2.91211 37.9258 5.45666 37.9258 8.59553C37.9258 11.7344 40.5226 14.2789 43.7258 14.2789Z" fill="#F8790F"/>
</svg>
