<svg width="24" height="24" viewBox="0 0 24 24" fill="none" xmlns="http://www.w3.org/2000/svg">
<path d="M18 9.75H16.5C16.4994 9.15345 16.2622 8.5815 15.8403 8.15967C15.4185 7.73784 14.8466 7.5006 14.25 7.5V6C15.2442 6.00119 16.1973 6.39666 16.9003 7.09966C17.6033 7.80267 17.9988 8.7558 18 9.75Z" fill="#121212" fill-opacity="0.54"/>
<path d="M20.9988 9.75H19.4988C19.4972 8.3581 18.9436 7.02367 17.9594 6.03944C16.9751 5.05522 15.6407 4.50159 14.2488 4.5V3C16.0384 3.00199 17.7541 3.71378 19.0196 4.97922C20.285 6.24466 20.9968 7.9604 20.9988 9.75ZM19.4988 21.75H19.3713C4.63381 20.9025 2.54131 8.4675 2.24881 4.6725C2.20309 4.07756 2.39557 3.48883 2.7839 3.03579C3.17224 2.58276 3.72462 2.30253 4.31956 2.25675C4.37906 2.25225 4.43881 2.25 4.49881 2.25H8.45131C8.75172 2.24971 9.04531 2.33963 9.29403 2.50812C9.54275 2.67661 9.73515 2.9159 9.84631 3.195L10.9863 6C11.0961 6.27266 11.1233 6.57156 11.0646 6.85957C11.006 7.14758 10.864 7.412 10.6563 7.62L9.05881 9.2325C9.30733 10.651 9.98609 11.9587 11.0031 12.9784C12.02 13.998 13.326 14.6802 14.7438 14.9325L16.3713 13.32C16.5824 13.1146 16.8493 12.9759 17.1388 12.9213C17.4282 12.8666 17.7273 12.8983 17.9988 13.0125L20.8263 14.145C21.1012 14.2597 21.3357 14.4536 21.5 14.702C21.6643 14.9504 21.7509 15.2422 21.7488 15.54V19.5C21.7488 20.0967 21.5118 20.669 21.0898 21.091C20.6678 21.5129 20.0955 21.75 19.4988 21.75ZM4.49881 3.75C4.40031 3.7497 4.30273 3.76881 4.21162 3.80623C4.12051 3.84365 4.03767 3.89864 3.96782 3.96808C3.89796 4.03751 3.84247 4.12003 3.80451 4.21091C3.76654 4.30179 3.74685 4.39926 3.74656 4.49775C3.74656 4.51875 3.74731 4.5395 3.74881 4.56C4.09381 9 6.30631 19.5 19.4538 20.25C19.6523 20.2619 19.8474 20.1945 19.9962 20.0625C20.145 19.9306 20.2353 19.745 20.2473 19.5465L20.2488 19.5V15.54L17.4213 14.4075L15.2688 16.545L14.9088 16.5C8.38381 15.6825 7.49881 9.1575 7.49881 9.09L7.45381 8.73L9.58381 6.5775L8.45881 3.75H4.49881Z" fill="#121212" fill-opacity="0.54"/>
</svg>
