<svg width="24" height="24" viewBox="0 0 24 24" fill="none" xmlns="http://www.w3.org/2000/svg">
<path d="M21.9455 2.7653C21.7299 2.58657 21.4699 2.46953 21.1932 2.42657C20.9164 2.38361 20.6332 2.41634 20.3735 2.5213L2.45651 9.7543C2.16698 9.87328 1.92049 10.0775 1.74975 10.3399C1.57901 10.6022 1.4921 10.9103 1.50056 11.2232C1.50903 11.5361 1.61246 11.839 1.79713 12.0918C1.9818 12.3445 2.23897 12.5351 2.53451 12.6383L6.40051 13.9803L8.49551 20.9063C8.49951 20.9203 8.51251 20.9293 8.51851 20.9423C8.5401 20.9976 8.57162 21.0484 8.61151 21.0923C8.67213 21.16 8.75037 21.2095 8.83751 21.2353C8.84751 21.2393 8.85451 21.2483 8.86451 21.2503H8.87051L8.87351 21.2513C8.95087 21.2679 9.03127 21.2638 9.10651 21.2393C9.11451 21.2373 9.12251 21.2373 9.13151 21.2343C9.20376 21.2089 9.26914 21.1672 9.32251 21.1123C9.32851 21.1053 9.33851 21.1043 9.34451 21.0983L12.3575 17.7723L16.7545 21.1773C17.0215 21.3863 17.3505 21.4993 17.6895 21.4993C18.4235 21.4993 19.0565 20.9853 19.2075 20.2683L22.4695 4.2503C22.5248 3.97837 22.5053 3.69653 22.413 3.43482C22.3208 3.17312 22.1592 2.94137 21.9455 2.7643V2.7653ZM9.58851 15.2953L8.88151 18.7323L7.40651 13.8543L14.7215 10.0443L9.72451 15.0423C9.65531 15.1114 9.60801 15.1994 9.58851 15.2953ZM18.2275 20.0673C18.2087 20.158 18.167 20.2423 18.1062 20.3122C18.0454 20.3821 17.9677 20.4351 17.8805 20.4663C17.7954 20.499 17.7033 20.5091 17.6132 20.4954C17.5231 20.4817 17.438 20.4448 17.3665 20.3883L12.6035 16.6993C12.5039 16.6224 12.3791 16.5859 12.2538 16.597C12.1285 16.6082 12.012 16.6661 11.9275 16.7593L9.83051 19.0703L10.5365 15.6433L17.7255 8.4533C17.8097 8.36883 17.8609 8.25705 17.8699 8.13814C17.879 8.01922 17.8452 7.901 17.7747 7.8048C17.7042 7.7086 17.6017 7.64077 17.4855 7.61354C17.3694 7.5863 17.2474 7.60147 17.1415 7.6563L6.77851 13.0543L2.86151 11.6923C2.75765 11.658 2.66707 11.5922 2.60237 11.504C2.53767 11.4158 2.50206 11.3097 2.50051 11.2003C2.49553 11.09 2.52501 10.9808 2.58486 10.888C2.6447 10.7952 2.73196 10.7233 2.83451 10.6823L20.7485 3.4493C20.8403 3.41029 20.9412 3.39768 21.0398 3.41287C21.1383 3.42807 21.2307 3.47046 21.3065 3.5353C21.3819 3.59629 21.4388 3.67702 21.471 3.76849C21.5031 3.85997 21.5092 3.95857 21.4885 4.0533L18.2275 20.0683V20.0673Z" fill="#121212" fill-opacity="0.54"/>
</svg>
