<svg width="24" height="24" viewBox="0 0 24 24" fill="none" xmlns="http://www.w3.org/2000/svg">
<path d="M22.5011 3.58929C22.501 3.50104 22.4777 3.41436 22.4333 3.33806C22.3889 3.26177 22.3252 3.19858 22.2485 3.1549C22.1718 3.11122 22.0849 3.08862 21.9967 3.08939C21.9084 3.09016 21.822 3.11428 21.7461 3.15929C21.0423 3.57838 20.2779 3.88602 19.4801 4.07129C18.6081 3.23881 17.4476 2.77646 16.2421 2.78129C15.5873 2.78222 14.9398 2.91905 14.3407 3.18313C13.7415 3.44721 13.2037 3.83279 12.7613 4.31546C12.3188 4.79813 11.9814 5.36739 11.7703 5.98721C11.5592 6.60702 11.4791 7.26391 11.5351 7.91629C8.51218 7.59503 5.73858 6.09268 3.81805 3.73629C3.76679 3.67369 3.7011 3.62446 3.62663 3.59283C3.55216 3.56121 3.47112 3.54813 3.39048 3.55472C3.30984 3.56131 3.232 3.58737 3.16365 3.63066C3.09529 3.67396 3.03847 3.7332 2.99805 3.80329C2.58317 4.52678 2.36494 5.34628 2.36505 6.18029C2.36383 7.09562 2.62856 7.9916 3.12705 8.75929L3.06705 8.72629C2.9887 8.68783 2.90171 8.67037 2.81459 8.67563C2.72747 8.68089 2.6432 8.70868 2.57005 8.75629C2.49383 8.80585 2.43127 8.87375 2.38812 8.95377C2.34496 9.03379 2.32259 9.12337 2.32305 9.21429C2.31905 9.33229 2.32605 9.45129 2.34505 9.56729C2.39231 10.2275 2.57873 10.8703 2.89206 11.4533C3.20539 12.0364 3.63854 12.5465 4.16305 12.9503C4.09912 12.9691 4.0396 13.0005 3.98799 13.0427C3.93637 13.0848 3.89371 13.1369 3.8625 13.1958C3.83129 13.2546 3.81216 13.3192 3.80625 13.3855C3.80033 13.4519 3.80774 13.5188 3.82805 13.5823C4.05906 14.3026 4.46036 14.9565 4.99792 15.4887C5.53549 16.0209 6.19347 16.4156 6.91605 16.6393C5.44054 17.4654 3.74117 17.8025 2.06205 17.6023C1.94953 17.5882 1.83557 17.6128 1.73887 17.672C1.64217 17.7313 1.56847 17.8216 1.52986 17.9282C1.49126 18.0348 1.49005 18.1514 1.52642 18.2588C1.5628 18.3662 1.6346 18.4581 1.73005 18.5193C3.7395 19.8132 6.07908 20.5009 8.46905 20.5003C11.1802 20.5302 13.8253 19.6634 15.9929 18.0347C18.1606 16.406 19.7293 14.1067 20.4551 11.4943C20.7941 10.3573 20.9671 9.17629 20.9691 7.98929C20.9691 7.86929 20.9691 7.74429 20.9661 7.61729C21.4862 7.08846 21.8911 6.45762 22.1552 5.76453C22.4194 5.07144 22.5372 4.33114 22.5011 3.59029V3.58929ZM20.0771 7.12229C19.9949 7.21941 19.953 7.34428 19.9601 7.47129C20.0147 8.73542 19.8579 9.99981 19.4961 11.2123C18.8507 13.6285 17.4133 15.7584 15.4141 17.261C13.4149 18.7636 10.9694 19.5521 8.46905 19.5003C6.94308 19.5003 5.43248 19.1954 4.02605 18.6033C5.67897 18.4199 7.24699 17.7754 8.55105 16.7433C8.63218 16.6795 8.6916 16.5922 8.72113 16.4933C8.75066 16.3944 8.74888 16.2888 8.71601 16.191C8.68314 16.0931 8.62081 16.0079 8.53757 15.9469C8.45432 15.8859 8.35424 15.8521 8.25105 15.8503C7.61101 15.8399 6.98455 15.664 6.43257 15.3399C5.8806 15.0157 5.42189 14.5542 5.10105 14.0003C5.52605 14.0013 5.94805 13.9433 6.35505 13.8263C6.46232 13.7949 6.55596 13.7284 6.62102 13.6375C6.68608 13.5466 6.71881 13.4365 6.71397 13.3248C6.70913 13.2132 6.66702 13.1063 6.59435 13.0214C6.52167 12.9365 6.42264 12.8783 6.31305 12.8563C5.59724 12.713 4.93968 12.3616 4.42287 11.846C3.90606 11.3305 3.55302 10.6737 3.40805 9.95829C3.83273 10.096 4.2748 10.1728 4.72105 10.1863C4.83099 10.1944 4.94033 10.1639 5.03016 10.1C5.12 10.0361 5.18468 9.94282 5.21305 9.83629C5.24572 9.73287 5.24387 9.62164 5.2078 9.51937C5.17172 9.41709 5.10337 9.32932 5.01305 9.26929C4.50429 8.93064 4.08746 8.47112 3.79985 7.93186C3.51225 7.3926 3.36286 6.79044 3.36505 6.17929C3.36505 5.76629 3.43205 5.35629 3.56505 4.96629C5.78208 7.36031 8.84644 8.79381 12.1051 8.96129C12.1829 8.96961 12.2616 8.95748 12.3333 8.92609C12.405 8.89469 12.4673 8.84513 12.5141 8.78229C12.5636 8.72286 12.5988 8.65272 12.6166 8.57741C12.6345 8.5021 12.6346 8.42366 12.6171 8.34829C12.551 8.07247 12.5175 7.78989 12.5171 7.50629C12.5181 6.51876 12.9107 5.57196 13.6088 4.87348C14.3069 4.17501 15.2535 3.78188 16.2411 3.78029C16.7497 3.77884 17.2532 3.88286 17.7196 4.08579C18.186 4.28872 18.6054 4.58614 18.9511 4.95929C19.0091 5.02122 19.082 5.06731 19.1629 5.09321C19.2437 5.11911 19.3298 5.12395 19.4131 5.10729C20.1227 4.96757 20.8127 4.74226 21.4681 4.43629C21.2977 5.4556 20.8106 6.39537 20.0761 7.12229H20.0771Z" fill="#121212" fill-opacity="0.54"/>
</svg>
