<svg width="44" height="44" viewBox="0 0 44 44" fill="none" xmlns="http://www.w3.org/2000/svg">
<circle cx="22" cy="22" r="20.5" fill="#ECF6FF" stroke="white" stroke-width="3"/>
<g clip-path="url(#clip0_729_17499)">
<path d="M32.5786 15.546L28.6652 11.6127C28.4066 11.3554 28.0567 11.2109 27.6919 11.2109C27.3271 11.2109 26.9772 11.3554 26.7186 11.6127L12.8452 25.466L11.5786 30.9327C11.5349 31.1325 11.5364 31.3396 11.583 31.5388C11.6295 31.7379 11.72 31.9242 11.8478 32.0839C11.9756 32.2437 12.1375 32.3728 12.3216 32.462C12.5057 32.5512 12.7074 32.5981 12.9119 32.5993C13.0072 32.609 13.1033 32.609 13.1986 32.5993L18.7252 31.3327L32.5786 17.4927C32.8359 17.2341 32.9803 16.8841 32.9803 16.5193C32.9803 16.1545 32.8359 15.8046 32.5786 15.546ZM18.0586 30.1327L12.8786 31.2193L14.0586 26.1393L24.4386 15.7993L28.4386 19.7993L18.0586 30.1327ZM29.3319 18.8327L25.3319 14.8327L27.6519 12.526L31.5852 16.526L29.3319 18.8327Z" fill="#0164EB"/>
</g>
<defs>
<clipPath id="clip0_729_17499">
<rect width="24" height="24" fill="white" transform="translate(10 10)"/>
</clipPath>
</defs>
</svg>
