<svg width="24" height="24" viewBox="0 0 24 24" fill="none" xmlns="http://www.w3.org/2000/svg">
<path d="M11.9984 2.4375C10.331 2.43777 8.69256 2.87407 7.24578 3.70309C5.799 4.53211 4.59415 5.72504 3.75078 7.1635C2.90741 8.60196 2.45484 10.236 2.43799 11.9033C2.42113 13.5707 2.84057 15.2135 3.65469 16.6688L2.82969 19.5469C2.76232 19.7721 2.75715 20.0114 2.81473 20.2394C2.8723 20.4673 2.99048 20.6755 3.15673 20.8417C3.32298 21.008 3.53111 21.1261 3.75907 21.1837C3.98702 21.2413 4.22631 21.2361 4.45157 21.1688L7.32969 20.3438C8.60497 21.0578 10.027 21.4699 11.4864 21.5486C12.9458 21.6273 14.4039 21.3704 15.7485 20.7977C17.0932 20.2249 18.2887 19.3516 19.2431 18.2447C20.1976 17.1378 20.8856 15.8269 21.2544 14.4126C21.6231 12.9983 21.6628 11.5183 21.3703 10.0863C21.0778 8.65435 20.461 7.30846 19.5671 6.15207C18.6733 4.99567 17.5263 4.05955 16.2143 3.41561C14.9022 2.77168 13.46 2.43707 11.9984 2.4375ZM11.9984 20.4375C10.4841 20.4371 8.99769 20.029 7.69532 19.2562C7.60579 19.2085 7.50616 19.1828 7.40469 19.1813C7.35396 19.1782 7.30311 19.1846 7.25469 19.2L4.14219 20.0906C4.10961 20.1007 4.07492 20.1016 4.04184 20.0934C4.00875 20.0852 3.97853 20.0681 3.95443 20.044C3.93033 20.0199 3.91325 19.9897 3.90504 19.9566C3.89682 19.9235 3.89779 19.8888 3.90782 19.8563L4.79844 16.7438C4.81947 16.6703 4.82532 16.5934 4.81565 16.5176C4.80598 16.4419 4.78099 16.3689 4.74219 16.3031C3.79276 14.7018 3.39958 12.8314 3.62388 10.9834C3.84819 9.1353 4.6774 7.4133 5.98234 6.08559C7.28728 4.75789 8.99469 3.89903 10.8386 3.6428C12.6825 3.38657 14.5594 3.74736 16.1769 4.66896C17.7944 5.59056 19.0617 7.02123 19.7814 8.73812C20.5011 10.455 20.6328 12.3617 20.1559 14.1612C19.6791 15.9608 18.6205 17.5521 17.145 18.6873C15.6695 19.8225 13.8601 20.4378 11.9984 20.4375ZM16.8266 13.575L14.9047 12.4781C14.7024 12.364 14.4735 12.3056 14.2412 12.3089C14.009 12.3122 13.7818 12.3771 13.5828 12.4969L12.3828 13.2188C11.7008 12.8558 11.1426 12.2976 10.7797 11.6156L11.5016 10.4156C11.6214 10.2167 11.6862 9.98945 11.6895 9.75722C11.6928 9.52499 11.6344 9.29604 11.5203 9.09375L10.4234 7.17188C10.3169 6.9874 10.1639 6.83406 9.97972 6.72715C9.79549 6.62023 9.58645 6.56346 9.37344 6.5625C8.52969 6.5625 7.72035 6.89703 7.12285 7.49278C6.52534 8.08853 6.18842 8.89687 6.18594 9.74063C6.18471 10.8002 6.39234 11.8496 6.79697 12.8289C7.2016 13.8082 7.79528 14.6981 8.54408 15.4477C9.29287 16.1974 10.1821 16.7921 11.1609 17.1979C12.1397 17.6036 13.1889 17.8125 14.2484 17.8125H14.2578C15.1016 17.81 15.9099 17.4731 16.5057 16.8756C17.1014 16.2781 17.4359 15.4688 17.4359 14.625C17.435 14.412 17.3782 14.203 17.2713 14.0187C17.1644 13.8345 17.011 13.6815 16.8266 13.575ZM14.2578 16.6875H14.2484C12.4076 16.685 10.6431 15.952 9.34232 14.6495C8.04155 13.347 7.31094 11.5814 7.31094 9.74063C7.31342 9.19524 7.53181 8.67304 7.91834 8.28827C8.30486 7.90351 8.82805 7.68749 9.37344 7.6875C9.40234 7.68987 9.42921 7.7033 9.44844 7.725L10.5453 9.64688C10.5604 9.6762 10.5674 9.70897 10.5658 9.74188C10.5641 9.7748 10.5538 9.8067 10.5359 9.83438L9.66407 11.3063C9.6147 11.382 9.58537 11.469 9.57881 11.5592C9.57225 11.6494 9.58868 11.7398 9.62657 11.8219C10.1391 12.9531 11.0454 13.8594 12.1766 14.3719C12.2587 14.4098 12.349 14.4262 12.4392 14.4196C12.5294 14.4131 12.6164 14.3837 12.6922 14.3344L14.1641 13.4625C14.1917 13.4446 14.2236 13.4343 14.2566 13.4327C14.2895 13.431 14.3222 13.4381 14.3516 13.4531L16.2734 14.55C16.2951 14.5692 16.3086 14.5961 16.3109 14.625C16.3109 15.1704 16.0949 15.6936 15.7102 16.0801C15.3254 16.4666 14.8032 16.685 14.2578 16.6875Z" fill="#121212" fill-opacity="0.54"/>
</svg>
